# xmcd
#
# Track frame offsets:
#	150
#	19007
#	36827
#	58295
#	74791
#	95529
#	111598
#	132136
#	159129
#	180047
#	201894
#	223964
#
# Disc length: 3220 seconds
#
# Revision: 0
# Processed by: cddbd v1.4PL0 Copyright (c) Steve Scherf et al.
# Submitted via: dBpowerAMP V4.0
#
DISCID=af0c920c
DTITLE=Ilse Delange - Livin' On Love
DYEAR=2000
DGENRE=Country
TTITLE0=Good Thing
TTITLE1=Naked Heart
TTITLE2=Ride The Wind To Me
TTITLE3=Breathin'
TTITLE4=I Still Cry
TTITLE5=Beyond Gravity
TTITLE6=Livin' On Love
TTITLE7=Peaceful In Mine
TTITLE8=When You Put It Like That
TTITLE9=Always Overcome
TTITLE10=Breathe In, Breathe Out
TTITLE11=Everywhere
EXTD=
EXTT0=
EXTT1=
EXTT2=
EXTT3=
EXTT4=
EXTT5=
EXTT6=
EXTT7=
EXTT8=
EXTT9=
EXTT10=
EXTT11=
PLAYORDER=
